<?xml version="1.0" encoding="UTF-8"?>
<svg id="Layer_1" xmlns="http://www.w3.org/2000/svg" version="1.1" viewBox="0 0 179.2 44.61">
  <!-- Generator: Adobe Illustrator 30.1.0, SVG Export Plug-In . SVG Version: 2.1.1 Build 136)  -->
  <defs>
    <style>
      .st0 {
        fill: #1d1d1b;
      }

      .st1 {
        fill: #ff0007;
      }
    </style>
  </defs>
  <g>
    <path class="st1" d="M27.89,32.82h-14.12l6.16-20.4h14.12l-1.3,4.31h-8.84l-1.02,3.37h8.41l-1.3,4.31h-8.41l-1.22,4.03h8.84l-1.32,4.37h0Z"/>
    <path class="st1" d="M39.49,32.82l.42-14.34h-.11c-.18.72-.39,1.59-.63,2.6s-.5,1.97-.77,2.89l-2.68,8.86h-4.77l6.16-20.4h7.11l-.27,13.66h.09l7.93-13.66h7.09l-6.16,20.4h-4.91l2.7-8.94c.27-.89.58-1.84.93-2.84s.65-1.84.89-2.53h-.11l-8.24,14.31h-4.67Z"/>
    <path class="st1" d="M68.32,32.82l.26-3.89h-5.83l-2.09,3.89h-5.77l12.21-20.46h7l-.07,20.46h-5.71ZM68.9,24.56l.29-3.8c.03-.42.07-.93.11-1.54.04-.61.09-1.22.15-1.83.06-.61.12-1.13.17-1.57-.21.44-.46.95-.76,1.53s-.6,1.17-.91,1.77c-.31.6-.59,1.14-.84,1.61l-2.04,3.83s3.83,0,3.83,0Z"/>
  </g>
  <g>
    <path class="st0" d="M122.13,32.86h-3.5l4.2-13.89h3.5l-4.2,13.89Z"/>
    <path class="st0" d="M150.52,32.86h-4.51l-1.73-9.36h-.08c-.05.19-.12.49-.21.9-.1.4-.2.84-.32,1.31-.12.47-.24.91-.36,1.31l-1.76,5.84h-3.25l4.2-13.9h4.52l1.75,9.21h.06c.05-.17.12-.45.22-.85.09-.4.2-.82.32-1.27.12-.45.23-.87.35-1.25l1.76-5.84h3.25l-4.2,13.9h-.01Z"/>
    <path class="st0" d="M138.67,26.11c-.45,1.48-1.05,2.75-1.82,3.82s-1.69,1.89-2.78,2.47-2.35.87-3.77.87c-2.1,0-3.47-.64-4.1-1.92s-.61-3.03.06-5.26c.67-2.22,1.71-3.96,3.11-5.22,1.4-1.27,3.16-1.9,5.27-1.9s3.52.63,4.13,1.9c.61,1.26.58,3.01-.1,5.24h0ZM130,26.11c-.4,1.31-.51,2.32-.33,3.04.17.71.69,1.07,1.54,1.07s1.62-.35,2.21-1.05c.59-.7,1.08-1.72,1.49-3.06.4-1.34.53-2.36.36-3.07-.16-.71-.68-1.07-1.55-1.07s-1.61.36-2.21,1.08c-.61.72-1.11,1.74-1.51,3.07h0Z"/>
    <path class="st0" d="M87.94,28.64c-.24.79-.65,1.52-1.23,2.2s-1.3,1.21-2.17,1.62c-.87.4-1.87.6-2.99.6-.82,0-1.5-.07-2.05-.19s-1.1-.36-1.65-.68l1.01-3.35c.56.38,1.16.67,1.8.87s1.24.3,1.8.3c.51,0,.9-.1,1.2-.29.29-.19.48-.44.57-.74.07-.23.07-.43-.01-.6s-.25-.35-.52-.55c-.27-.19-.63-.43-1.11-.72-.53-.34-.98-.68-1.34-1.04-.36-.36-.59-.79-.69-1.29-.1-.51-.03-1.15.2-1.93.4-1.31,1.14-2.32,2.23-3.02,1.09-.7,2.38-1.05,3.87-1.05.78,0,1.48.09,2.1.28.62.19,1.18.43,1.67.71l-1.93,2.9c-.47-.29-.94-.51-1.41-.66-.47-.16-.93-.23-1.38-.23s-.78.08-1.03.25-.41.38-.49.64c-.07.22-.06.42.02.59.08.18.27.36.56.56s.7.46,1.23.77c.8.48,1.37,1.02,1.7,1.62s.34,1.41.03,2.43h.01Z"/>
    <path class="st0" d="M93.85,32.86h-3.58l3.29-10.9h-3.07l.91-3h9.71l-.91,3h-3.06l-3.29,10.9Z"/>
    <path class="st0" d="M104.83,32.86l.18-2.65h-3.97l-1.42,2.65h-3.93l8.32-13.93h4.77l-.05,13.93h-3.9ZM105.23,27.24l.2-2.59c.02-.29.05-.64.07-1.05s.06-.83.1-1.25.08-.77.12-1.07c-.14.3-.31.65-.52,1.04-.2.4-.41.8-.62,1.21s-.4.78-.58,1.1l-1.39,2.61h2.62Z"/>
    <path class="st0" d="M113.77,32.86h-3.58l3.29-10.9h-3.07l.91-3h9.71l-.91,3h-3.06l-3.29,10.9Z"/>
  </g>
  <path class="st1" d="M156.79,12.33h-74.45l-.91,3h75.35c5.88,0,8.73,2.37,8.73,7.24,0,3.99-3.25,7.24-7.24,7.24h-2.49l-.91,3h3.39c5.65,0,10.24-4.59,10.24-10.24,0-6.51-4.28-10.24-11.73-10.24h.02Z"/>
</svg>